<?xml version="1.0" encoding="iso-8859-1"?>
<!-- Generator: Adobe Illustrator 19.1.0, SVG Export Plug-In . SVG Version: 6.00 Build 0)  -->
<svg xmlns="http://www.w3.org/2000/svg" xmlns:xlink="http://www.w3.org/1999/xlink" version="1.1" id="Capa_1" x="0px" y="0px" viewBox="0 0 64 64" style="enable-background:new 0 0 64 64;" xml:space="preserve" width="512px" height="512px">
<g>
	<g>
		<polygon points="41.707,40.293 33,31.586 33,12 31,12 31,32.414 40.293,41.707   " fill="#7e60ff"/>
		<rect x="4" y="31" width="4" height="2" fill="#7e60ff"/>
		<rect x="56" y="31" width="4" height="2" fill="#7e60ff"/>
		<rect x="31" y="56" width="2" height="4" fill="#7e60ff"/>
		<rect x="31" y="4" width="2" height="4" fill="#7e60ff"/>
		<path d="M53.651,9H62V7H51l-1,1v11h2v-8.828l4.475,4.476C60.09,19.737,62,25.735,62,32c0,16.542-13.458,30-30,30S2,48.542,2,32    S15.458,2,32,2V0C14.355,0,0,14.355,0,32s14.355,32,32,32s32-14.355,32-32c0-6.712-2.056-13.137-5.945-18.581L53.651,9z" fill="#7e60ff"/>
	</g>
</g>
<g>
</g>
<g>
</g>
<g>
</g>
<g>
</g>
<g>
</g>
<g>
</g>
<g>
</g>
<g>
</g>
<g>
</g>
<g>
</g>
<g>
</g>
<g>
</g>
<g>
</g>
<g>
</g>
<g>
</g>
</svg>
