            <svg version="1.1" id="5b0f0ae4bb6d2" xmlns="http://www.w3.org/2000/svg" xmlns:xlink="http://www.w3.org/1999/xlink" x="0px" y="0px" width="64px" height="64px" viewBox="0 0 64 64" enable-background="new 0 0 64 64" xml:space="preserve" >
                <g>
                    <path fill="none" stroke="#F5F5DC" stroke-width="2" stroke-miterlimit="10" d="M36,34L41,39"  class="svg-service_0"></path>
                    <path transform="matrix(-0.7071 0.7071 -0.7071 -0.7071 120.5036 47.0858)" fill="none" stroke="#F5F5DC" stroke-width="2" stroke-miterlimit="10" width="8.485" height="26.87" d="M46.257 35.065 L54.742 35.065 L54.742 61.935 L46.257 61.935 Z"  class="svg-service_1"></path>
                    <path fill="none" stroke="#F5F5DC" stroke-width="2" stroke-miterlimit="10" d="M12,16L18,10L8,4L6,6Z"  class="svg-service_2"></path>
                    <path fill="none" stroke="#F5F5DC" stroke-width="2" stroke-miterlimit="10" d="M28,26L15,13"  class="svg-service_3"></path>
                    <path fill="none" stroke="#F5F5DC" stroke-width="2" stroke-miterlimit="10" d="M58,12.5l-8,3.75l-4-4.125l3.5-8.062l0,0  C39.5,4.062,37,9,37,14v4L3.5,52l-1.75,6l2.125,2l6.062-1.5L44,25h4C53,25,58,22.5,58,12.5L58,12.5z"  class="svg-service_4"></path>
                </g>


<style>
.svg-service_0 {
    stroke-dasharray: 8 10;
    stroke-dashoffset: 9;
    animation: svg-service_draw 2500ms linear 0ms forwards;
}

.svg-service_1 {
    stroke-dasharray: 71 73;
    stroke-dashoffset: 72;
    animation: svg-service_draw 2500ms linear 0ms forwards;
}

.svg-service_2 {
    stroke-dasharray: 35 37;
    stroke-dashoffset: 36;
    animation: svg-service_draw 2500ms linear 0ms forwards;
}

.svg-service_3 {
    stroke-dasharray: 19 21;
    stroke-dashoffset: 20;
    animation: svg-service_draw 2500ms linear 0ms forwards;
}

.svg-service_4 {
    stroke-dasharray: 179 181;
    stroke-dashoffset: 180;
    animation: svg-service_draw 2500ms linear 0ms forwards;
}

@keyframes svg-service_draw {
    100% {
        stroke-dashoffset: 0;
    }
}

@keyframes svg-service_fade {
    0% {
        stroke-opacity: 1;
    }
    94.02985074626866% {
        stroke-opacity: 1;
    }
    100% {
        stroke-opacity: 0;
    }
}

</style>
</svg>